<?xml version="1.0" encoding="UTF-8" standalone="no"?>
<!DOCTYPE svg PUBLIC "-//W3C//DTD SVG 1.1//EN" "http://www.w3.org/Graphics/SVG/1.1/DTD/svg11.dtd">
<svg width="100%" height="100%" viewBox="0 0 1294 370" version="1.1" xmlns="http://www.w3.org/2000/svg" xmlns:xlink="http://www.w3.org/1999/xlink" xml:space="preserve" xmlns:serif="http://www.serif.com/" style="fill-rule:evenodd;clip-rule:evenodd;stroke-linejoin:round;stroke-miterlimit:2;">
    <g transform="matrix(1,0,0,1,-584.367,-76.2041)">
        <g transform="matrix(2.69861,0,0,0.830527,547.298,52.543)">
            <rect id="Typeface" x="0" y="0" width="500" height="500" style="fill:none;"/>
            <g id="Typeface1" serif:id="Typeface">
                <g transform="matrix(1.21265,0,0,1.20405,-35.0316,-60.9364)">
                    <g transform="matrix(0.305579,0,0,1,-166.389,-2.02674)">
                        <rect x="676.109" y="183.478" width="48.782" height="262.66" style="fill:rgb(132,0,0);"/>
                    </g>
                    <g transform="matrix(0.305579,0,0,1,-167.611,-2.02674)">
                        <path d="M752.771,252.45L820.193,252.45C851.709,252.45 874.088,246.573 887.331,234.819C900.575,223.065 907.196,206.526 907.196,185.201C907.196,184.623 907.191,184.049 907.18,183.478L957.487,183.478C957.487,183.548 957.488,183.619 957.488,183.689C957.488,215.089 947.513,241.661 927.564,263.406C907.615,285.151 871.574,296.023 819.438,296.023L752.771,296.023L752.771,252.45Z" style="fill:rgb(22,22,22);"/>
                    </g>
                    <g transform="matrix(3.14735,0,0,10.3166,-2366.97,-1442.58)">
                        <path d="M764.83,154.721L764.83,147.089L778.331,147.089C780.707,147.089 782.522,147.203 783.775,147.431C785.533,147.724 787.006,148.281 788.194,149.103C789.382,149.925 790.339,151.076 791.063,152.558C791.4,153.247 791.659,153.968 791.839,154.721L786.693,154.721C786.538,154.377 786.35,154.05 786.131,153.742C785.374,152.676 784.377,151.972 783.14,151.63C782.343,151.418 780.87,151.312 778.722,151.312L769.566,151.312L769.566,154.721L764.83,154.721Z" style="fill:rgb(22,22,22);fill-rule:nonzero;"/>
                    </g>
                </g>
                <g transform="matrix(2.24068,0,0,7.50866,-2367.07,-1237.02)">
                    <path d="M1116.22,181.19L1116.22,168.539L1142.51,168.539C1147.8,168.539 1151.82,169.072 1154.57,170.137C1157.32,171.203 1159.52,173.084 1161.16,175.781C1162.19,177.472 1162.9,179.276 1163.29,181.19L1154.9,181.19C1154.39,179.914 1153.59,178.785 1152.48,177.803C1150.45,175.996 1147.23,175.093 1142.84,175.093L1124.06,175.093L1124.06,181.19L1116.22,181.19Z" style="fill:rgb(22,22,22);fill-rule:nonzero;"/>
                    <g transform="matrix(0.165379,0,0,0.160355,965.898,156.32)">
                        <rect x="908.928" y="183.724" width="47.455" height="262.321" style="fill:rgb(22,22,22);"/>
                    </g>
                    <g transform="matrix(0.165379,0,0,0.160355,965.898,156.32)">
                        <path d="M980.526,239.428L1058.39,239.428C1080.08,239.428 1097.04,237.116 1109.27,232.491C1121.5,227.866 1130.8,220.465 1137.15,210.29C1142.33,202.018 1145.39,193.163 1146.36,183.724L1195.44,183.724C1194.16,207.087 1185.98,227 1170.91,243.465C1154.44,261.461 1129,272.897 1094.59,277.775C1107.15,283.998 1116.69,290.136 1123.21,296.191C1137.07,309.31 1150.2,325.708 1162.6,345.385L1224.97,446.045L1165.29,446.045L1117.83,369.1C1103.97,346.899 1092.55,329.912 1083.58,318.139C1074.62,306.366 1066.58,298.125 1059.49,293.416C1052.39,288.707 1045.18,285.427 1037.84,283.577C1032.46,282.4 1023.65,281.811 1011.42,281.811L980.526,281.811L980.526,239.428Z" style="fill:rgb(22,22,22);"/>
                    </g>
                    <path d="M1176.09,181.19L1176.09,168.539L1218.97,168.539L1218.97,175.538L1183.94,175.538L1183.94,181.19L1176.09,181.19Z" style="fill:rgb(22,22,22);fill-rule:nonzero;"/>
                    <g transform="matrix(0.165379,0,0,0.160355,965.898,156.32)">
                        <rect x="1342.66" y="233.121" width="174.14" height="43.392" style="fill:rgb(22,22,22);"/>
                    </g>
                    <g transform="matrix(0.165379,0,0,0.160355,965.898,156.32)">
                        <path d="M1318.41,183.724L1318.41,402.4L1538.57,402.4L1538.57,446.045L1270.96,446.045L1270.96,183.724L1318.41,183.724Z" style="fill:rgb(22,22,22);"/>
                    </g>
                    <g transform="matrix(0.165379,0,0,0.160355,965.898,156.32)">
                        <rect x="1318.41" y="233.121" width="0.032" height="43.392" style="fill:rgb(22,22,22);"/>
                    </g>
                    <g transform="matrix(0.165379,0,0,0.160355,965.898,156.32)">
                        <path d="M1675.73,252.042L1744.29,252.042C1774.95,252.042 1796.72,246.156 1809.6,234.383C1822.49,222.61 1828.93,206.044 1828.93,184.684C1828.93,184.363 1828.93,184.043 1828.92,183.724L1877.85,183.724C1877.74,214.933 1868.03,241.364 1848.74,263.016C1829.34,284.797 1794.27,295.687 1743.56,295.687L1675.73,295.687L1675.73,252.042Z" style="fill:rgb(22,22,22);"/>
                    </g>
                    <g transform="matrix(0.165379,0,0,0.160355,965.898,156.32)">
                        <rect x="1604.13" y="183.724" width="47.455" height="262.321" style="fill:rgb(22,22,22);"/>
                    </g>
                    <path d="M1231.19,181.19L1231.19,168.539L1253.56,168.539C1257.5,168.539 1260.5,168.728 1262.58,169.106C1265.49,169.591 1267.93,170.515 1269.9,171.877C1271.87,173.239 1273.45,175.147 1274.65,177.601C1275.21,178.745 1275.64,179.941 1275.94,181.19L1267.42,181.19C1267.16,180.618 1266.85,180.075 1266.48,179.563C1265.23,177.797 1263.58,176.63 1261.53,176.064C1260.21,175.713 1257.77,175.538 1254.2,175.538L1239.04,175.538L1239.04,181.19L1231.19,181.19Z" style="fill:rgb(22,22,22);fill-rule:nonzero;"/>
                </g>
            </g>
        </g>
    </g>
</svg>
