<?xml version="1.0" encoding="UTF-8" standalone="no"?>
<!DOCTYPE svg PUBLIC "-//W3C//DTD SVG 1.1//EN" "http://www.w3.org/Graphics/SVG/1.1/DTD/svg11.dtd">
<svg width="100%" height="100%" viewBox="0 0 279 370" version="1.1" xmlns="http://www.w3.org/2000/svg" xmlns:xlink="http://www.w3.org/1999/xlink" xml:space="preserve" xmlns:serif="http://www.serif.com/" style="fill-rule:evenodd;clip-rule:evenodd;stroke-linejoin:round;stroke-miterlimit:2;">
    <g transform="matrix(1,0,0,1,-131.606,-74.8699)">
        <g transform="matrix(1,0,0,1,-544.503,-2.02674)">
            <rect x="676.109" y="183.478" width="48.782" height="262.66" style="fill:rgb(196,0,0);"/>
        </g>
        <g transform="matrix(1,0,0,1,-548.503,-2.02674)">
            <path d="M752.771,252.45L820.193,252.45C851.709,252.45 874.088,246.573 887.331,234.819C900.575,223.065 907.196,206.526 907.196,185.201C907.196,184.623 907.191,184.049 907.18,183.478L957.487,183.478C957.487,183.548 957.488,183.619 957.488,183.689C957.488,215.089 947.513,241.661 927.564,263.406C907.615,285.151 871.574,296.023 819.438,296.023L752.771,296.023L752.771,252.45Z" style="fill:rgb(22,22,22);"/>
        </g>
        <g transform="matrix(10.2996,0,0,10.3166,-7745.85,-1442.58)">
            <path d="M764.83,154.721L764.83,147.089L778.331,147.089C780.707,147.089 782.522,147.203 783.775,147.431C785.533,147.724 787.006,148.281 788.194,149.103C789.382,149.925 790.339,151.076 791.063,152.558C791.4,153.247 791.659,153.968 791.839,154.721L786.693,154.721C786.538,154.377 786.35,154.05 786.131,153.742C785.374,152.676 784.377,151.972 783.14,151.63C782.343,151.418 780.87,151.312 778.722,151.312L769.566,151.312L769.566,154.721L764.83,154.721Z" style="fill:rgb(22,22,22);fill-rule:nonzero;"/>
        </g>
    </g>
</svg>
